Coordinates
version=1
nRows=17
nColumns=40
inDegrees=yes

Units are S.I. units (second, meters, Newtons, ...)
Angles are in degrees.

endheader
time	pelvis_tilt	pelvis_list	pelvis_rotation	pelvis_tx	pelvis_ty	pelvis_tz	hip_flexion_r	hip_adduction_r	hip_rotation_r	knee_angle_r	knee_angle_r_beta	ankle_angle_r	subtalar_angle_r	mtp_angle_r	hip_flexion_l	hip_adduction_l	hip_rotation_l	knee_angle_l	knee_angle_l_beta	ankle_angle_l	subtalar_angle_l	mtp_angle_l	lumbar_extension	lumbar_bending	lumbar_rotation	arm_flex_r	arm_add_r	arm_rot_r	elbow_flex_r	pro_sup_r	wrist_flex_r	wrist_dev_r	arm_flex_l	arm_add_l	arm_rot_l	elbow_flex_l	pro_sup_l	wrist_flex_l	wrist_dev_l
     27.19500000	     -5.74363407	     -3.75774383	      2.19020598	      0.88004393	      0.92203091	      0.47410813	     -0.15358341	     -2.13964887	    -16.43346433	     27.43880690	     27.43880690	     13.30646744	      1.50107941	    -13.71354147	     26.56383464	     -3.57150246	     -3.02708725	     25.91548059	     25.91548059	      8.84809785	    -13.90124042	      7.12113833	     -4.97038742	      5.35269751	      5.33250690	     31.28650239	    -17.51033628	    -10.24467486	     79.67883994	     44.98772675	      0.00000000	      0.00000000	     -6.90610440	     -7.15211944	      5.46316192	     25.75873763	     43.97089727	      0.00000000	      0.00000000
     27.20742857	     -5.70880917	     -3.78308060	      1.96880880	      0.88047233	      0.92308850	      0.47191634	      1.19303752	     -2.66881807	    -15.40634922	     30.59505182	     30.59505182	     10.97479479	     -1.25417350	    -16.92838662	     25.79978979	     -3.52762358	     -3.18691139	     25.69243202	     25.69243202	      9.17089556	    -13.95104720	      6.84082791	     -4.97979582	      5.45821177	      5.00956378	     30.19883830	    -16.96710298	    -10.05190355	     76.21985767	     45.11771963	      0.00000000	      0.00000000	     -6.16376049	     -7.36509946	      5.01412002	     26.84769042	     44.18426168	      0.00000000	      0.00000000
     27.21985714	     -5.61130659	     -3.76730578	      1.76489604	      0.88079630	      0.92410595	      0.46987137	      2.70721963	     -3.26670804	    -14.50026940	     34.20652701	     34.20652701	      9.36299512	     -3.41525744	    -17.26123760	     24.96009737	     -3.44399645	     -3.35720656	     25.44291541	     25.44291541	      9.53159069	    -13.92444506	      6.68339969	     -5.11841754	      5.47122433	      5.09047564	     28.34195089	    -16.88749030	     -9.93392784	     74.15561832	     45.18022606	      0.00000000	      0.00000000	     -4.98099424	     -7.55762138	      4.83106480	     27.62924981	     44.26364597	      0.00000000	      0.00000000
     27.23228571	     -5.45405762	     -3.62784860	      1.56799349	      0.88098690	      0.92496884	      0.46784426	      4.34286158	     -4.05487628	    -13.74619252	     38.07995901	     38.07995901	      7.63898410	     -5.22968777	    -17.32959651	     24.06261951	     -3.24546159	     -3.63988619	     25.21013806	     25.21013806	      9.93300770	    -13.82380074	      6.51267091	     -5.36811511	      5.37547155	      4.99305725	     26.52726449	    -16.59385372	     -9.77089792	     72.46003096	     45.22485927	      0.00000000	      0.00000000	     -3.75011097	     -7.82741261	      4.70708477	     28.33301126	     44.31295687	      0.00000000	      0.00000000
     27.24471429	     -5.37035753	     -3.74041398	      1.40020461	      0.88089504	      0.92563237	      0.46616462	      6.16935830	     -4.23179223	    -12.50394564	     41.82167040	     41.82167040	      5.55957852	     -8.23296758	    -16.79199445	     23.37367988	     -3.29104066	     -3.66012116	     25.12884950	     25.12884950	     10.27000412	    -13.88345444	      6.25153607	     -5.42571556	      5.54439443	      5.03279766	     24.96651689	    -16.33997775	     -9.85492319	     69.08914512	     45.33728665	      0.00000000	      0.00000000	     -2.56062483	     -8.12958935	      4.48054346	     29.53172088	     44.39270018	      0.00000000	      0.00000000
     27.25714286	     -5.26057435	     -3.73770563	      1.23976840	      0.88070591	      0.92615295	      0.46451191	      8.06927282	     -4.58920955	    -11.53525480	     45.63902431	     45.63902431	      3.65971370	    -10.47392245	    -15.66310131	     22.63497216	     -3.22830556	     -3.78008409	     25.00169834	     25.00169834	     10.63099034	    -13.86917743	      5.97330622	     -5.57103982	      5.56098085	      4.82293740	     23.53521045	    -15.88159191	     -9.80782205	     65.82666833	     45.44068127	      0.00000000	      0.00000000	     -1.44021930	     -8.48751143	      4.21840857	     30.81778618	     44.47775487	      0.00000000	      0.00000000
     27.26957143	     -5.12247953	     -3.55395949	      1.11249822	      0.88037999	      0.92658128	      0.46280789	      9.98377437	     -5.19684849	    -10.80671845	     49.36963166	     49.36963166	      1.79710988	    -12.08499422	    -14.85009918	     21.84155215	     -2.96494883	     -3.98298661	     24.83064996	     24.83064996	     11.01137363	    -13.78889753	      5.80120264	     -5.78064865	      5.39236791	      4.61093890	     21.61933683	    -15.46383328	     -9.59375284	     64.00521711	     45.48564422	      0.00000000	      0.00000000	     -0.07845183	     -8.87776139	      4.04096479	     31.68535064	     44.53153628	      0.00000000	      0.00000000
     27.28200000	     -5.01983908	     -3.65854652	      0.98001240	      0.87987147	      0.92705016	      0.46146987	     12.05402473	     -5.18252275	     -9.78123281	     53.03234656	     53.03234656	      1.21593270	    -13.26513787	     -9.94638682	     21.16443771	     -3.02356316	     -4.03716670	     24.73699558	     24.73699558	     11.34747764	    -13.76769646	      5.39733571	     -5.83427795	      5.52491777	      4.09285943	     21.15273084	    -14.66246627	     -9.79250353	     58.06608285	     45.68878533	      0.00000000	      0.00000000	      0.70868868	     -9.36962090	      3.57915987	     33.81913574	     44.66438925	      0.00000000	      0.00000000
     27.29442857	     -4.93288843	     -3.63074114	      0.87404522	      0.87925184	      0.92746335	      0.46007704	     14.03465518	     -5.35555343	     -9.03149459	     56.21257919	     56.21257919	      0.03132274	    -14.39527262	     -7.81278760	     20.47740631	     -2.90794076	     -4.04104703	     24.58399971	     24.58399971	     11.67789204	    -13.85863098	      5.25840664	     -5.97548995	      5.52364844	      4.25990899	     19.12295938	    -14.62171944	     -9.50474362	     55.40809286	     45.75491097	      0.00000000	      0.00000000	      2.22154479	     -9.67050990	      3.17419097	     35.19424393	     44.76853756	      0.00000000	      0.00000000
     27.30685714	     -4.90043721	     -3.50467655	      0.72876152	      0.87853131	      0.92784465	      0.45881681	     16.05289098	     -5.57135383	     -8.28125474	     59.05612234	     59.05612234	     -1.01590429	    -15.26035438	     -6.55634491	     19.76775201	     -2.71874925	     -4.21882356	     24.27888960	     24.27888960	     12.01112508	    -13.76506748	      5.13990168	     -6.04856654	      5.44363867	      4.25404837	     17.12520779	    -14.38618737	     -9.32402464	     53.19391470	     45.81264011	      0.00000000	      0.00000000	      3.69858587	     -9.99699542	      2.90849834	     36.25429761	     44.83657104	      0.00000000	      0.00000000
     27.31928571	     -4.83411225	     -3.43291960	      0.57608763	      0.87772321	      0.92835693	      0.45772553	     17.96159663	     -5.64113937	     -7.59672666	     61.47117355	     61.47117355	     -1.69006390	    -15.84799840	     -5.34699279	     19.01927892	     -2.58908896	     -4.33719257	     23.96657603	     23.96657603	     12.39232778	    -13.68082042	      4.99873710	     -6.21412821	      5.40577863	      4.39442545	     15.08266334	    -14.21467609	     -9.17123927	     50.64854541	     45.88374522	      0.00000000	      0.00000000	      5.28296877	    -10.29301754	      2.63245329	     37.45267170	     44.90470405	      0.00000000	      0.00000000
     27.33171429	     -4.70627223	     -3.41716371	      0.48320179	      0.87697076	      0.92902572	      0.45681426	     19.70184517	     -5.61161731	     -7.09129092	     63.45725636	     63.45725636	     -1.98792508	    -16.14875026	     -4.34706926	     18.18608165	     -2.52678693	     -4.47692031	     23.60279469	     23.60279469	     12.71006979	    -13.54519544	      4.88596037	     -6.31025004	      5.40159453	      4.51229851	     13.10094390	    -13.94815563	     -9.00784140	     48.09756971	     45.95513173	      0.00000000	      0.00000000	      6.86017312	    -10.60070039	      2.35129383	     38.68120365	     44.97087651	      0.00000000	      0.00000000
     27.34414286	     -4.58694376	     -3.51078030	      0.35731870	      0.87608903	      0.92989321	      0.45618700	     21.48220660	     -5.38207054	     -6.61863650	     65.21333239	     65.21333239	     -0.67195990	    -15.42106413	      0.36042579	     17.31313621	     -2.59074987	     -4.54735511	     23.11881717	     23.11881717	     12.81815112	    -13.47913111	      4.41394689	     -6.41648918	      5.48601520	      3.64669698	     13.62868531	    -12.91035724	     -9.21501391	     40.27112268	     46.23176696	      0.00000000	      0.00000000	      7.45306319	    -11.22471184	      1.45100133	     41.18704019	     45.15569386	      0.00000000	      0.00000000
     27.35657143	     -4.48917415	     -3.53915012	      0.19980970	      0.87519548	      0.93074875	      0.45568110	     23.05758580	     -5.19401879	     -6.22838482	     66.22215546	     66.22215546	     -0.67992389	    -15.55173948	      0.36784085	     16.40768300	     -2.59092993	     -4.69541017	     22.55429111	     22.55429111	     13.08555771	    -13.30344975	      4.37953748	     -6.59816766	      5.54063268	      3.98929194	     11.37200791	    -12.81985722	     -9.05957122	     38.43417194	     46.27373682	      0.00000000	      0.00000000	      9.08684601	    -11.39130614	      0.98763274	     42.52893606	     45.24490744	      0.00000000	      0.00000000
     27.36900000	     -4.41006837	     -3.57088725	      0.03555716	      0.87431998	      0.93168332	      0.45529771	     24.53384144	     -4.97716578	     -5.91768197	     66.74512398	     66.74512398	     -0.51698358	    -15.63899214	      0.36168390	     15.46660035	     -2.60076968	     -4.88831768	     21.88570220	     21.88570220	     13.32935879	    -13.05812557	      4.32823072	     -6.73669671	      5.60597060	      4.30057436	      9.25919158	    -12.67593497	     -8.89807311	     36.40287042	     46.32544544	      0.00000000	      0.00000000	     10.64785741	    -11.53706262	      0.55252182	     43.92883491	     45.32700689	      0.00000000	      0.00000000
     27.38142857	     -4.24154488	     -3.68680871	     -0.13745911	      0.87341825	      0.93272228	      0.45512062	     25.78364790	     -4.66809103	     -5.74273259	     66.79661390	     66.79661390	     -0.16411041	    -15.65747989	      0.39424900	     14.43465339	     -2.71022640	     -5.08400801	     21.22238155	     21.22238155	     13.51027468	    -12.84966493	      4.18056916	     -7.00769119	      5.76464563	      4.59563108	      7.45155287	    -12.48633612	     -8.73810557	     33.75304872	     46.40339191	      0.00000000	      0.00000000	     12.09656165	    -11.67711807	     -0.03953970	     45.69085226	     45.43089658	      0.00000000	      0.00000000
     27.39385714	     -4.14260882	     -3.78616299	     -0.31238818	      0.87248120	      0.93365628	      0.45506104	     26.99208293	     -4.35681501	     -5.60257267	     66.39608337	     66.39608337	      0.22740540	    -15.75048869	      0.44900395	     13.42163599	     -2.79727263	     -5.24824128	     20.45014613	     20.45014613	     13.67423086	    -12.57305476	      4.04061146	     -7.19354286	      5.90113808	      4.67316162	      5.74511966	    -12.22366081	     -8.60725620	     31.47789856	     46.47098065	      0.00000000	      0.00000000	     13.35455496	    -11.86672106	     -0.64597397	     47.38833296	     45.53041351	      0.00000000	      0.00000000
